<?xml version="1.0" standalone="no"?><!-- Generator: Gravit.io --><svg xmlns="http://www.w3.org/2000/svg" xmlns:xlink="http://www.w3.org/1999/xlink" style="isolation:isolate" viewBox="-344.887 1100.097 1052.887 620.903" width="1052.887" height="620.903"><g id="person"><defs><filter id="AHDYyDQTKVANOMTtoJIWslmUNu1Ev9TB" x="-200%" y="-200%" width="400%" height="400%"><feOffset xmlns="http://www.w3.org/2000/svg" in="SourceAlpha" result="offOut" dx="0" dy="5"/><feGaussianBlur xmlns="http://www.w3.org/2000/svg" in="offOut" result="blurOut" stdDeviation="2.5"/><feComponentTransfer xmlns="http://www.w3.org/2000/svg" in="blurOut" result="opacOut"><feFuncA xmlns="http://www.w3.org/2000/svg" type="table" tableValues="0 0.5"/></feComponentTransfer><feBlend xmlns="http://www.w3.org/2000/svg" in="SourceGraphic" in2="opacOut" mode="normal"/></filter></defs><g opacity="0.1" filter="url(#AHDYyDQTKVANOMTtoJIWslmUNu1Ev9TB)"><path d=" M 623.192 1538.272 Q 621.452 1542.022 619.722 1545.672 Q 617.023 1551.342 614.393 1556.792 C 613.612 1558.402 612.832 1559.982 612.072 1561.562 C 603.472 1579.132 595.442 1594.672 588.622 1607.452 C 576.018 1631.038 551.554 1645.875 524.812 1646.152 L 373.162 1647.802 L 371.562 1647.802 L 358.562 1647.942 L 347.442 1648.062 L 313.342 1648.432 L 311.963 1648.432 L 294.602 1648.622 L 294.072 1648.622 L 187.072 1649.782 L 91.562 1650.782 L 80.452 1650.902 L 11.452 1651.652 L 11.372 1651.652 L -33.378 1652.132 L -33.858 1652.132 L -175.358 1653.662 L -217.688 1654.122 C -226.721 1654.224 -235.716 1652.936 -244.358 1650.302 C -259.395 1645.759 -272.91 1637.202 -283.448 1625.552 C -301.628 1605.522 -314.878 1582.152 -323.778 1556.792 Q -325.708 1551.302 -327.378 1545.672 C -358.188 1441.522 -320.628 1307.152 -253.028 1217.232 Q -248.778 1211.592 -244.388 1206.232 L -244.318 1206.152 C -223.528 1180.632 -200.218 1159.312 -175.388 1144.152 C -131.388 1117.242 -82.638 1109.662 -34.688 1132.252 C 5.882 1151.372 43.763 1160.362 80.482 1162.802 C 84.192 1163.042 87.902 1163.222 91.592 1163.332 C 175.822 1165.982 254.763 1135.632 347.463 1116.042 C 351.153 1115.262 354.852 1114.492 358.583 1113.762 C 424.713 1100.602 498.072 1093.662 585.312 1108.252 C 594.376 1109.733 603.32 1111.872 612.072 1114.652 Q 617.842 1116.512 623.192 1118.652 C 664.832 1135.592 687.543 1166.892 697.192 1206.112 Q 698.562 1211.572 699.562 1217.222 C 716.673 1311.562 666.562 1445.382 623.192 1538.272 Z " fill="rgb(130,130,156)"/></g><defs><filter id="a6QORvzlOsAzVYFDcnnFKEarFSDkMjvQ" x="-200%" y="-200%" width="400%" height="400%"><feOffset xmlns="http://www.w3.org/2000/svg" in="SourceAlpha" result="offOut" dx="0" dy="5"/><feGaussianBlur xmlns="http://www.w3.org/2000/svg" in="offOut" result="blurOut" stdDeviation="2.5"/><feComponentTransfer xmlns="http://www.w3.org/2000/svg" in="blurOut" result="opacOut"><feFuncA xmlns="http://www.w3.org/2000/svg" type="table" tableValues="0 0.5"/></feComponentTransfer><feBlend xmlns="http://www.w3.org/2000/svg" in="SourceGraphic" in2="opacOut" mode="normal"/></filter></defs><g opacity="0.1" filter="url(#a6QORvzlOsAzVYFDcnnFKEarFSDkMjvQ)"><path d=" M 625.049 1538.487 Q 623.565 1542.346 622.085 1546.104 Q 619.773 1551.943 617.517 1557.558 C 616.847 1559.217 616.175 1560.846 615.523 1562.473 C 608.126 1580.583 601.162 1596.629 595.218 1609.839 C 584.231 1634.221 560.823 1650.672 534.161 1652.75 L 382.966 1664.614 L 381.37 1664.722 L 368.409 1665.737 L 357.322 1666.606 L 323.325 1669.273 L 321.948 1669.366 L 304.64 1670.725 L 304.111 1670.76 L 197.433 1679.127 L 102.207 1686.559 L 91.13 1687.428 L 22.338 1692.825 L 22.258 1692.83 L -22.358 1696.324 L -22.837 1696.356 L -163.912 1707.416 L -206.115 1710.727 C -215.121 1711.438 -224.183 1710.758 -232.982 1708.713 C -248.292 1705.194 -262.352 1697.567 -273.651 1686.653 C -293.139 1667.893 -307.933 1645.469 -318.522 1620.766 Q -320.817 1615.419 -322.863 1609.914 C -360.62 1508.076 -332.198 1371.481 -270.81 1277.211 Q -266.95 1271.297 -262.931 1265.654 L -262.866 1265.569 C -243.843 1238.707 -222.022 1215.865 -198.27 1199.066 C -156.183 1169.253 -108.055 1158.406 -58.691 1177.714 C -16.925 1194.057 21.474 1200.474 58.275 1200.435 C 61.993 1200.424 65.707 1200.354 69.396 1200.215 C 153.613 1197.184 230.329 1161.585 321.498 1135.794 C 325.127 1134.767 328.767 1133.749 332.439 1132.77 C 397.532 1115.184 470.258 1103.317 558.283 1111.996 C 567.426 1112.863 576.493 1114.395 585.413 1116.579 Q 591.295 1118.046 596.777 1119.821 C 639.464 1133.917 664.231 1163.615 676.502 1202.096 Q 678.236 1207.452 679.615 1213.021 C 703.042 1305.994 662.062 1442.886 625.049 1538.487 Z " fill="rgb(130,130,156)"/></g><g id="Group" style="opacity:0.1;"><g opacity="0.1"><path d=" M -175.388 1144.152 L -175.388 1653.772 L -217.718 1654.232 C -226.751 1654.334 -235.746 1653.046 -244.388 1650.412 L -244.388 1206.152 L -244.318 1206.152 C -223.528 1180.602 -200.218 1159.282 -175.388 1144.152 Z " fill="rgb(130,130,156)"/></g><g opacity="0.1"><path d=" M 699.612 1217.232 L -253.028 1217.232 Q -248.778 1211.592 -244.388 1206.232 L -244.388 1206.152 L 697.242 1206.152 Q 698.612 1211.582 699.612 1217.232 Z " fill="rgb(130,130,156)"/></g><g opacity="0.1"><path d=" M 623.192 1118.662 L 623.192 1545.662 L 619.722 1545.662 Q 617.023 1551.332 614.393 1556.782 C 613.612 1558.392 612.832 1559.972 612.072 1561.552 L 612.072 1114.622 Q 617.842 1116.482 623.192 1118.662 Z " fill="rgb(130,130,156)"/></g><g opacity="0.1"><path d=" M 358.583 1113.732 L 358.583 1647.982 L 347.463 1648.102 L 347.463 1116.012 C 351.153 1115.232 354.852 1114.462 358.583 1113.732 Z " fill="rgb(130,130,156)"/></g><g opacity="0.1"><path d=" M 91.592 1163.302 L 91.592 1650.882 L 80.482 1651.002 L 80.482 1162.772 C 84.192 1163.012 87.902 1163.152 91.592 1163.302 Z " fill="rgb(130,130,156)"/></g><g opacity="0.1"><path d=" M 619.722 1545.672 Q 617.023 1551.342 614.393 1556.792 L -323.778 1556.792 Q -325.708 1551.302 -327.378 1545.672 L 619.722 1545.672 Z " fill="rgb(130,130,156)"/></g></g><rect x="-126.688" y="1365.892" width="19" height="57.66" transform="matrix(1,0,0,1,0,0)" fill="rgb(63,61,86)"/><rect x="384.642" y="1362.892" width="19" height="61" transform="matrix(1,0,0,1,0,0)" fill="rgb(63,61,86)"/><path d=" M 524.812 1633.712 L 524.812 1646.712 L 372.892 1648.112 L 371.272 1648.142 L 313.532 1648.672 L 312.152 1648.692 L 294.603 1648.842 L 294.082 1648.842 L 187.103 1649.832 L 11.492 1651.462 L 11.342 1651.462 L -33.308 1651.882 L -33.788 1651.892 L -232.188 1653.712 L -232.188 1638.712 L -185.538 1610.712 L -91.938 1609.932 L -89.938 1609.922 L -89.278 1609.912 L -87.278 1609.882 L -42.338 1609.512 L -40.328 1609.502 L -39.688 1609.492 L -37.688 1609.482 L -23.278 1609.362 L -22.897 1609.352 L 12.652 1609.052 L 12.942 1609.052 L 290.342 1606.712 L 297.132 1606.662 L 297.812 1606.662 L 302.993 1606.612 L 340.642 1606.302 L 342.642 1606.272 L 344.493 1606.252 L 345.452 1606.252 L 357.162 1606.162 L 359.483 1606.132 L 362.592 1606.112 L 372.342 1606.022 L 387.812 1605.892 L 389.812 1605.872 L 393.293 1605.852 L 393.942 1605.852 L 468.652 1605.212 L 524.812 1633.712 L 524.812 1633.712 Z " fill="rgb(101,97,125)"/><g opacity="0.2"><path d=" M 524.812 1633.712 L 524.812 1646.712 L 372.892 1648.112 L 371.272 1648.142 L 313.532 1648.672 L 312.152 1648.692 L 294.603 1648.842 L 294.082 1648.842 L 187.103 1649.832 L 11.492 1651.462 L 11.342 1651.462 L -33.308 1651.882 L -33.788 1651.892 L -232.188 1653.712 L -232.188 1638.712 L -185.538 1610.712 L -91.938 1609.932 L -89.938 1609.922 L -89.278 1609.912 L -87.278 1609.882 L -42.338 1609.512 L -40.328 1609.502 L -39.688 1609.492 L -37.688 1609.482 L -23.278 1609.362 L -22.897 1609.352 L 12.652 1609.052 L 12.942 1609.052 L 290.342 1606.712 L 297.132 1606.662 L 297.812 1606.662 L 302.993 1606.612 L 340.642 1606.302 L 342.642 1606.272 L 344.493 1606.252 L 345.452 1606.252 L 357.162 1606.162 L 359.483 1606.132 L 362.592 1606.112 L 372.342 1606.022 L 387.812 1605.892 L 389.812 1605.872 L 393.293 1605.852 L 393.942 1605.852 L 468.652 1605.212 L 524.812 1633.712 L 524.812 1633.712 Z " fill="rgb(0,0,0)"/></g><path d=" M -42.188 1583.722 L -42.188 1608.212 C -42.186 1610.58 -43.549 1612.736 -45.688 1613.752 C -46.468 1614.13 -47.321 1614.335 -48.188 1614.352 L -83.088 1615.092 C -84.02 1615.114 -84.944 1614.919 -85.788 1614.522 C -87.965 1613.524 -89.36 1611.347 -89.358 1608.952 L -89.358 1583.722 L -42.188 1583.722 Z " fill="rgb(63,61,86)"/><g opacity="0.1"><path d=" M -42.188 1583.722 L -42.188 1608.212 C -42.186 1610.58 -43.549 1612.736 -45.688 1613.752 C -46.468 1614.13 -47.321 1614.335 -48.188 1614.352 L -83.088 1615.092 C -84.02 1615.114 -84.944 1614.919 -85.788 1614.522 C -87.965 1613.524 -89.36 1611.347 -89.358 1608.952 L -89.358 1583.722 L -42.188 1583.722 Z " fill="rgb(0,0,0)"/></g><path d=" M -40.188 1583.722 L -40.188 1608.212 C -40.186 1610.58 -41.549 1612.736 -43.688 1613.752 C -44.468 1614.13 -45.321 1614.335 -46.188 1614.352 L -81.088 1615.092 C -82.02 1615.114 -82.944 1614.919 -83.788 1614.522 C -85.965 1613.524 -87.36 1611.347 -87.358 1608.952 L -87.358 1583.722 L -40.188 1583.722 Z " fill="rgb(63,61,86)"/><rect x="342.642" y="1583.722" width="47.17" height="31.5" transform="matrix(1,0,0,1,0,0)" fill="rgb(63,61,86)"/><g opacity="0.1"><rect x="342.642" y="1583.722" width="47.17" height="31.5" transform="matrix(1,0,0,1,0,0)" fill="rgb(0,0,0)"/></g><rect x="340.642" y="1583.722" width="47.17" height="31.5" transform="matrix(1,0,0,1,0,0)" fill="rgb(63,61,86)"/><g opacity="0.1"><path d=" M -107.688 1365.882 L -107.688 1371.612 L -126.688 1371.122 L -126.688 1365.882 L -107.688 1365.882 L -107.688 1365.882 Z " fill="rgb(0,0,0)"/></g><path d=" M 17.372 1204.462 L -5.458 1368.462 C -5.757 1370.631 -7.639 1372.228 -9.828 1372.172 L -192.628 1367.432 L -196.098 1367.342 C -197.319 1367.313 -198.471 1366.765 -199.265 1365.836 C -200.059 1364.907 -200.42 1363.683 -200.258 1362.472 L -174.628 1190.792 C -174.285 1188.587 -172.313 1187.011 -170.088 1187.162 L 13.372 1199.582 C 14.569 1199.651 15.682 1200.218 16.442 1201.145 C 17.202 1202.072 17.539 1203.275 17.372 1204.462 Z " fill="rgb(101,97,125)"/><path d=" M -162.358 1199.222 L -181.688 1350.552 L -13.688 1355.882 L 6.972 1209.882 L -162.358 1199.222 L -162.358 1199.222 Z " fill="rgb(130,130,156)"/><path d="M 51.642 1196.882 L 245.652 1196.882 C 248.594 1196.882 250.982 1199.27 250.982 1202.212 L 250.982 1364.882 C 250.982 1367.824 248.594 1370.212 245.652 1370.212 L 51.642 1370.212 C 48.701 1370.212 46.312 1367.824 46.312 1364.882 L 46.312 1202.212 C 46.312 1199.27 48.701 1196.882 51.642 1196.882 Z" style="stroke:none;fill:#65617D;stroke-miterlimit:10;"/><rect x="55.972" y="1208.552" width="186" height="144.33" transform="matrix(1,0,0,1,0,0)" fill="rgb(130,130,156)"/><g opacity="0.1"><path d=" M 403.642 1362.882 L 403.642 1366.672 L 384.642 1367.062 L 384.642 1362.882 L 403.642 1362.882 L 403.642 1362.882 Z " fill="rgb(0,0,0)"/></g><path d=" M 489.372 1359.682 C 489.427 1360.519 489.138 1361.342 488.572 1361.961 C 488.006 1362.581 487.211 1362.942 486.372 1362.962 L 299.172 1366.832 C 297.559 1366.865 296.194 1365.648 296.042 1364.042 L 279.953 1196.762 C 279.872 1195.923 280.139 1195.088 280.691 1194.452 C 281.242 1193.815 282.031 1193.432 282.872 1193.392 L 468.653 1184.152 L 470.653 1184.052 C 472.305 1183.965 473.729 1185.203 473.872 1186.852 L 489.372 1359.682 Z " fill="rgb(101,97,125)"/><path d=" M 290.642 1203.222 L 460.312 1194.882 L 474.642 1346.882 L 306.312 1350.882 L 290.642 1203.222 L 290.642 1203.222 Z " fill="rgb(130,130,156)"/><g opacity="0.1"><path d=" M 489.372 1359.682 C 489.427 1360.519 489.138 1361.342 488.572 1361.961 C 488.006 1362.581 487.211 1362.942 486.372 1362.962 L 468.653 1184.152 L 470.653 1184.052 C 472.305 1183.965 473.729 1185.203 473.872 1186.852 L 489.372 1359.682 Z " fill="rgb(0,0,0)"/></g><g opacity="0.1"><path d=" M -170.058 1187.152 L -192.628 1367.432 L -196.098 1367.342 C -197.319 1367.313 -198.471 1366.765 -199.265 1365.836 C -200.059 1364.907 -200.42 1363.683 -200.258 1362.472 L -174.628 1190.792 C -174.289 1188.571 -172.298 1186.985 -170.058 1187.152 Z " fill="rgb(0,0,0)"/></g><g opacity="0.1"><rect x="-126.688" y="1406.472" width="19" height="17.08" transform="matrix(1,0,0,1,0,0)" fill="rgb(0,0,0)"/></g><g opacity="0.1"><path d=" M -40.188 1583.712 L -40.188 1588.682 L -87.358 1589.942 L -87.358 1583.712 L -40.188 1583.712 L -40.188 1583.712 Z " fill="rgb(0,0,0)"/></g><path d=" M 43.062 1412.422 L 43.062 1580.622 C 43.037 1582.754 41.344 1584.492 39.212 1584.572 L -152.438 1589.672 L -152.487 1589.672 C -154.658 1589.645 -156.411 1587.892 -156.438 1585.722 L -156.438 1412.422 C -156.411 1410.252 -154.658 1408.499 -152.487 1408.472 L 39.112 1408.472 C 41.283 1408.499 43.036 1410.252 43.062 1412.422 L 43.062 1412.422 Z " fill="rgb(101,97,125)"/><g opacity="0.1"><path d=" M -152.438 1408.472 L -152.438 1589.672 L -152.487 1589.672 C -154.658 1589.645 -156.411 1587.892 -156.438 1585.722 L -156.438 1412.422 C -156.411 1410.252 -154.658 1408.499 -152.487 1408.472 L -152.438 1408.472 Z " fill="rgb(0,0,0)"/></g><path d=" M -143.688 1419.212 L 33.812 1419.212 L 33.812 1567.462 L -143.688 1571.462 L -143.688 1419.212 L -143.688 1419.212 Z " fill="rgb(212,223,236)"/><g opacity="0.1"><rect x="384.642" y="1406.472" width="19" height="17.42" transform="matrix(1,0,0,1,0,0)" fill="rgb(0,0,0)"/></g><g opacity="0.1"><path d=" M 387.812 1583.712 L 387.812 1590.122 L 340.642 1588.862 L 340.642 1583.712 L 387.812 1583.712 L 387.812 1583.712 Z " fill="rgb(0,0,0)"/></g><path d=" M 450.062 1412.422 L 450.062 1585.722 C 450.035 1587.911 448.252 1589.672 446.062 1589.672 L 446.062 1589.672 L 254.372 1584.572 C 252.241 1584.492 250.548 1582.754 250.523 1580.622 L 250.523 1412.422 C 250.549 1410.252 252.302 1408.499 254.472 1408.472 L 446.072 1408.472 C 448.258 1408.477 450.035 1410.236 450.062 1412.422 Z " fill="rgb(101,97,125)"/><g opacity="0.1"><path d=" M 450.062 1412.422 L 450.062 1585.722 C 450.035 1587.911 448.252 1589.672 446.062 1589.672 L 446.062 1589.672 L 446.062 1408.472 L 446.062 1408.472 C 448.252 1408.472 450.035 1410.232 450.062 1412.422 Z " fill="rgb(0,0,0)"/></g><path d=" M 437.312 1419.212 L 259.812 1419.212 L 259.812 1567.462 L 437.312 1571.462 L 437.312 1419.212 L 437.312 1419.212 Z " fill="rgb(212,223,236)"/><path d=" M 245.562 1412.422 L 245.562 1580.622 C 245.537 1582.754 243.844 1584.492 241.713 1584.572 L 50.062 1589.672 L 50.062 1589.672 C 47.873 1589.672 46.09 1587.911 46.062 1585.722 L 46.062 1412.422 C 46.089 1410.252 47.842 1408.499 50.013 1408.472 L 241.612 1408.472 C 243.783 1408.499 245.536 1410.252 245.562 1412.422 Z " fill="rgb(101,97,125)"/><path d=" M 58.812 1419.212 L 236.312 1419.212 L 236.312 1567.462 L 58.812 1571.462 L 58.812 1419.212 L 58.812 1419.212 Z " fill="rgb(212,223,236)"/><g opacity="0.1"><path d=" M 524.812 1633.712 L 524.812 1646.712 L 372.892 1648.112 L 371.272 1648.142 L 313.532 1648.672 L 312.152 1648.692 L 294.603 1648.842 L 294.082 1648.842 L 187.103 1649.832 L 11.492 1651.462 L 11.342 1651.462 L -33.308 1651.882 L -33.788 1651.892 L -232.188 1653.712 L -232.188 1638.712 L -29.678 1637.382 L -29.198 1637.382 L 11.792 1637.102 L 11.982 1637.102 L 295.062 1635.232 L 295.353 1635.232 L 295.522 1635.222 L 295.993 1635.222 L 300.782 1635.192 L 302.243 1635.192 L 376.733 1634.692 L 381.132 1634.672 L 382.113 1634.662 L 524.812 1633.712 L 524.812 1633.712 Z " fill="rgb(0,0,0)"/></g><path d=" M 97.642 1372.222 C 97.642 1343.892 120.643 1320.892 148.972 1320.892 C 177.302 1320.892 200.302 1343.892 200.302 1372.222 C 200.302 1400.552 177.302 1423.552 148.972 1423.552 C 120.643 1423.552 97.642 1400.552 97.642 1372.222 Z " fill="rgb(251,190,190)"/><linearGradient id="_lgradient_0" x1="49.99182414912756%" y1="100%" x2="49.99182414912757%" y2="-0.07768330771948939%"><stop offset="0%" stop-opacity="0.25" style="stop-color:rgb(128,128,128)"/><stop offset="54%" stop-opacity="0.12" style="stop-color:rgb(128,128,128)"/><stop offset="100%" stop-opacity="0.1" style="stop-color:rgb(128,128,128)"/></linearGradient><path d=" M -33.888 1652.242 C -33.888 1652.132 -33.828 1652.012 -33.788 1651.892 C -32.788 1648.302 -31.008 1642.232 -29.678 1637.382 C -29.508 1636.782 -29.348 1636.192 -29.198 1635.632 C -27.728 1630.162 -24.868 1617.352 -23.278 1609.362 C -22.718 1606.552 -22.278 1604.362 -22.188 1603.262 C -21.987 1601.572 -18.978 1594.342 -15.568 1586.032 C -13.178 1580.192 -10.568 1573.812 -8.658 1568.432 C -7.407 1565.236 -6.427 1561.941 -5.728 1558.582 C -5.578 1557.88 -5.578 1557.154 -5.728 1556.452 C -6.028 1555.309 -6.189 1554.134 -6.208 1552.952 L -6.208 1552.952 C -6.438 1546.752 -4.588 1536.952 -1.728 1532.842 C 1.772 1527.842 4.272 1509.182 4.272 1509.182 C 4.272 1509.182 9.452 1509.932 10.272 1505.652 C 10.359 1505.191 10.393 1504.721 10.372 1504.252 C 10.37 1503.88 10.34 1503.509 10.282 1503.142 C 9.392 1496.902 25.002 1490.262 33.782 1488.832 C 34.774 1488.662 35.777 1488.568 36.782 1488.552 C 38.915 1488.32 41.013 1487.836 43.032 1487.112 Q 44.432 1486.682 46.032 1486.112 C 49.712 1484.872 54.112 1483.232 58.782 1481.432 C 76.342 1474.622 97.602 1465.432 97.602 1465.432 C 97.752 1464.722 97.922 1464.042 98.112 1463.372 C 100.242 1454.821 106.313 1447.793 114.463 1444.442 L 114.463 1444.442 C 114.463 1443.782 114.463 1443.112 114.463 1442.442 C 114.463 1438.992 114.312 1435.442 114.162 1431.902 C 114.162 1431.212 114.102 1430.522 114.062 1429.832 C 114.062 1429.632 114.062 1429.422 114.062 1429.222 C 114.062 1429.022 114.062 1428.872 114.062 1428.702 C 114.062 1428.002 113.992 1427.302 113.953 1426.612 L 113.773 1426.472 C 112.236 1425.311 110.916 1423.89 109.872 1422.272 C 109.292 1421.326 108.815 1420.321 108.453 1419.272 C 107.203 1415.882 106.912 1412.102 106.072 1408.522 L 105.893 1407.782 C 104.798 1404.169 103.462 1400.635 101.893 1397.202 C 99.682 1391.782 97.982 1386.202 96.292 1380.552 Q 94.752 1375.422 93.182 1370.272 L 91.602 1365.032 C 91.302 1364.032 91.002 1363.032 90.772 1362.032 L 90.772 1362.032 C 90.661 1361.57 90.574 1361.103 90.513 1360.632 C 90.232 1359.098 90.314 1357.519 90.752 1356.022 C 91.141 1355 91.582 1353.999 92.072 1353.022 C 92.282 1352.578 92.449 1352.116 92.572 1351.642 L 92.572 1351.642 C 92.605 1351.537 92.632 1351.43 92.652 1351.322 C 92.724 1350.966 92.761 1350.605 92.763 1350.242 C 92.728 1348.93 92.554 1347.626 92.242 1346.352 C 92.236 1346.336 92.236 1346.318 92.242 1346.302 C 92.231 1346.211 92.214 1346.121 92.192 1346.032 C 92.013 1345.04 91.893 1344.038 91.832 1343.032 C 91.481 1337.617 92.685 1332.215 95.302 1327.462 L 95.492 1327.102 C 96.044 1326.136 96.658 1325.207 97.333 1324.322 L 97.333 1324.322 C 97.643 1323.902 97.963 1323.502 98.333 1323.102 C 96.932 1324.442 94.632 1323.852 93.332 1322.412 C 93.118 1322.187 92.933 1321.935 92.782 1321.662 C 92.696 1321.517 92.619 1321.367 92.552 1321.212 C 92.502 1321.092 92.462 1320.962 92.422 1320.832 C 91.722 1318.382 92.942 1315.772 94.542 1313.782 C 96.119 1311.844 98.071 1310.245 100.282 1309.082 L 100.282 1309.082 C 100.412 1309.004 100.545 1308.934 100.682 1308.872 C 101.532 1308.446 102.415 1308.091 103.322 1307.812 L 103.322 1307.812 C 103.857 1307.635 104.401 1307.488 104.953 1307.372 L 101.242 1307.032 L 99.742 1306.892 C 101.27 1300.832 106.51 1296.435 112.742 1295.982 L 113.822 1295.982 C 114.348 1295.99 114.873 1296.033 115.393 1296.112 C 113.69 1295.366 112.632 1293.638 112.742 1291.782 C 115.361 1293.832 118.608 1294.913 121.932 1294.842 L 122.312 1294.842 C 122.139 1293.759 122.026 1292.667 121.972 1291.572 L 121.972 1291.572 C 121.872 1290.087 121.872 1288.597 121.972 1287.112 C 123.786 1288.832 126.269 1289.66 128.752 1289.372 L 126.672 1286.472 C 128.526 1287.951 130.867 1288.682 133.232 1288.522 L 133.713 1288.472 C 134.115 1288.43 134.513 1288.353 134.903 1288.242 L 134.992 1288.242 C 134.802 1288.002 134.632 1287.752 134.463 1287.492 L 134.403 1287.372 C 133.987 1286.718 133.651 1286.016 133.403 1285.282 C 133.303 1284.998 133.223 1284.707 133.162 1284.412 L 133.162 1284.412 C 132.726 1282.594 132.884 1280.684 133.612 1278.962 C 136.842 1281.662 140.382 1285.352 144.612 1282.562 C 148.842 1279.772 148.982 1274.652 155.612 1275.172 C 159.323 1275.522 162.548 1277.868 164.023 1281.292 C 165.94 1279.125 169.025 1278.421 171.692 1279.542 C 174.315 1280.785 175.869 1283.545 175.572 1286.432 C 178.322 1285.742 181.282 1285.062 183.922 1286.102 C 186.562 1287.142 188.263 1290.512 186.763 1292.762 C 186.722 1292.832 186.675 1292.899 186.622 1292.962 C 185.393 1294.552 182.672 1295.422 182.963 1297.422 L 183.382 1297.722 L 184.682 1298.662 Q 192.333 1304.182 199.583 1310.262 C 202.062 1312.342 204.703 1314.842 204.872 1318.092 C 204.902 1318.889 204.822 1319.687 204.632 1320.462 L 204.632 1320.462 C 204.472 1321.242 204.252 1322.022 204.083 1322.802 C 203.655 1324.789 203.54 1326.83 203.742 1328.852 L 203.742 1328.852 C 203.812 1329.442 203.903 1330.022 204.013 1330.612 C 205.542 1338.342 211.722 1344.722 212.333 1352.612 L 212.333 1353.172 C 212.369 1354.016 212.346 1354.861 212.263 1355.702 C 211.802 1360.502 209.583 1365.112 207.782 1369.702 C 207.672 1369.982 207.562 1370.262 207.463 1370.542 C 203.992 1379.542 201.992 1389.132 200.463 1398.702 C 199.969 1402.097 199.301 1405.465 198.463 1408.792 C 197.55 1412.599 195.813 1416.16 193.372 1419.222 C 192.397 1420.373 191.267 1421.383 190.013 1422.222 C 189.168 1422.762 188.282 1423.234 187.362 1423.632 C 187.362 1423.632 187.362 1423.632 187.362 1423.692 C 187.472 1424.302 187.562 1424.912 187.672 1425.522 C 187.732 1425.842 187.782 1426.162 187.842 1426.522 L 187.842 1426.522 C 187.838 1426.542 187.838 1426.562 187.842 1426.582 C 188.682 1431.312 189.643 1435.942 190.653 1440.342 L 191.162 1442.532 C 203.763 1447.082 205.252 1456.402 205.342 1459.972 C 205.378 1460.448 205.378 1460.926 205.342 1461.402 C 205.342 1461.402 224.342 1461.902 231.842 1467.402 C 233.244 1468.353 234.759 1469.126 236.352 1469.702 C 239.377 1470.845 242.466 1471.81 245.602 1472.592 C 247.213 1473.012 248.893 1473.422 250.602 1473.822 C 253.602 1474.512 256.782 1475.182 259.852 1475.822 C 268.042 1477.472 275.752 1478.822 279.662 1479.822 C 288.992 1482.182 310.333 1502.642 310.333 1502.642 C 310.333 1502.642 312.833 1523.282 315.333 1526.292 C 317.833 1529.302 322.333 1539.882 322.333 1539.882 L 338.872 1569.292 L 345.872 1581.662 L 350.372 1581.662 C 350.992 1581.662 352.213 1582.542 353.583 1583.762 C 354.773 1584.822 356.092 1586.142 357.252 1587.342 L 359.172 1589.392 L 360.372 1590.722 C 360.372 1590.722 367.643 1590.902 369.612 1596.652 C 375.532 1596.482 382.802 1596.872 387.893 1599.152 C 388.587 1599.458 389.256 1599.819 389.893 1600.232 C 392.003 1601.454 393.502 1603.509 394.023 1605.892 C 394.124 1606.366 394.184 1606.848 394.203 1607.332 C 394.203 1607.902 394.203 1608.472 394.203 1609.032 C 393.842 1616.602 388.912 1622.902 384.382 1627.142 L 384.703 1627.712 C 384.703 1627.712 384.552 1628.072 384.263 1628.712 C 384.182 1628.902 384.083 1629.112 383.972 1629.352 L 383.972 1629.352 C 383.382 1630.612 382.442 1632.502 381.213 1634.712 C 378.603 1639.495 375.386 1643.922 371.643 1647.882 L 371.352 1648.182 L 313.612 1648.712 L 313.442 1648.512 L 302.242 1635.152 L 296.672 1628.512 L 296.502 1628.302 L 296.342 1629.892 L 295.802 1635.192 L 294.502 1648.002 L 294.432 1648.642 L 294.432 1648.812 L 294.282 1650.292 L 294.393 1648.812 L 294.102 1648.812 L 187.102 1649.812 L 11.482 1651.752 L 11.482 1652.592 L 11.342 1652.592 L 11.342 1651.752 L -33.408 1652.232 L -33.888 1652.242 Z " fill="url(#_lgradient_0)"/><path d=" M 200.312 1477.222 C 200.312 1477.222 100.812 1489.222 110.312 1477.222 C 113.752 1472.882 114.703 1460.022 114.513 1445.372 C 114.453 1440.922 114.292 1436.312 114.062 1431.722 C 112.963 1409.722 110.312 1388.222 110.312 1388.222 C 110.312 1388.222 197.312 1347.222 187.312 1379.722 C 183.312 1392.852 184.622 1411.292 187.662 1428.602 C 188.552 1433.652 189.583 1438.602 190.662 1443.302 C 193.298 1454.766 196.519 1466.087 200.312 1477.222 L 200.312 1477.222 Z " fill="rgb(251,190,190)"/><g opacity="0.1"><path d=" M 200.312 1477.222 C 200.312 1477.222 100.812 1489.222 110.312 1477.222 C 113.752 1472.882 114.703 1460.022 114.513 1445.372 C 129.682 1438.892 148.982 1443.722 148.982 1443.722 C 169.302 1439.672 182.333 1440.462 190.662 1443.302 C 193.298 1454.766 196.519 1466.087 200.312 1477.222 L 200.312 1477.222 Z " fill="rgb(0,0,0)"/></g><path d=" M 11.452 1652.592 L 11.452 1651.752 L 187.072 1649.842 L 294.072 1648.842 L 294.372 1648.842 L 294.263 1650.322 L 294.412 1648.842 L 294.602 1648.842 L 294.602 1648.672 L 295.972 1635.222 L 296.492 1630.132 L 296.653 1628.542 L 296.792 1627.212 L 302.972 1606.602 L 309.153 1586.022 L 314.352 1568.692 L 322.292 1542.212 C 322.292 1542.212 317.792 1531.712 315.292 1528.712 C 315.292 1528.712 310.292 1505.212 310.292 1505.212 C 310.292 1505.212 288.953 1484.882 279.622 1482.542 C 275.713 1481.542 267.992 1480.212 259.792 1478.542 C 256.722 1477.922 253.572 1477.262 250.542 1476.542 C 248.833 1476.152 247.153 1475.742 245.542 1475.332 C 242.409 1474.549 239.321 1473.594 236.292 1472.472 C 234.705 1471.895 233.193 1471.126 231.792 1470.182 C 224.442 1464.792 206.023 1464.182 205.312 1464.182 L 205.312 1464.182 C 205.311 1464.159 205.311 1464.135 205.312 1464.112 L 205.312 1464.022 C 205.338 1463.602 205.338 1463.181 205.312 1462.762 C 205.312 1462.362 205.312 1461.892 205.222 1461.362 C 205.222 1461.202 205.222 1461.032 205.153 1460.862 C 205.102 1460.502 205.042 1460.122 204.953 1459.722 C 204.922 1459.543 204.882 1459.366 204.833 1459.192 C 204.543 1457.987 204.124 1456.817 203.583 1455.702 C 203.513 1455.542 203.422 1455.372 203.342 1455.212 C 202.852 1454.288 202.283 1453.408 201.643 1452.582 C 201.513 1452.412 201.372 1452.232 201.222 1452.062 C 200.403 1451.096 199.492 1450.212 198.502 1449.422 C 198.232 1449.212 197.953 1448.992 197.662 1448.792 C 197.501 1448.661 197.33 1448.54 197.153 1448.432 L 196.263 1447.852 L 195.432 1447.372 C 194.703 1446.972 193.932 1446.582 193.092 1446.212 C 192.833 1446.092 192.552 1445.982 192.273 1445.872 C 191.992 1445.762 191.552 1445.592 191.182 1445.452 L 191.122 1445.452 L 190.372 1445.152 C 189.802 1444.962 189.222 1444.792 188.612 1444.622 L 187.682 1444.382 L 186.682 1444.152 L 185.682 1443.942 C 184.682 1443.742 183.612 1443.562 182.492 1443.422 L 181.352 1443.282 L 180.182 1443.162 L 178.972 1443.062 L 177.252 1442.962 L 175.252 1442.892 C 166.432 1442.891 157.636 1443.826 149.013 1445.682 C 143.022 1444.349 136.886 1443.784 130.752 1444.002 L 129.882 1444.002 L 128.882 1444.062 L 128.242 1444.062 L 126.953 1444.182 C 126.523 1444.182 126.083 1444.272 125.653 1444.332 C 125.222 1444.392 124.773 1444.442 124.342 1444.512 L 123.682 1444.622 C 123.032 1444.732 122.372 1444.852 121.682 1444.992 Q 121.352 1445.052 121.023 1445.142 C 120.153 1445.332 119.282 1445.562 118.422 1445.822 C 117.992 1445.942 117.562 1446.082 117.132 1446.232 C 116.912 1446.292 116.703 1446.372 116.492 1446.452 L 115.852 1446.682 L 115.222 1446.932 L 114.472 1447.232 C 114.092 1447.392 113.722 1447.562 113.352 1447.742 C 113.143 1447.832 112.932 1447.932 112.732 1448.042 C 112.532 1448.152 112.322 1448.242 112.132 1448.352 C 109.871 1449.52 107.782 1450.994 105.922 1452.732 L 105.412 1453.222 L 104.912 1453.732 C 104.742 1453.902 104.583 1454.082 104.422 1454.262 C 103.771 1454.974 103.163 1455.726 102.602 1456.512 C 102.442 1456.722 102.292 1456.932 102.143 1457.152 C 101.508 1458.088 100.933 1459.063 100.422 1460.072 C 100.292 1460.312 100.172 1460.562 100.052 1460.802 C 99.236 1462.491 98.567 1464.248 98.052 1466.052 Q 97.773 1467.052 97.542 1468.052 C 97.312 1469.052 76.372 1477.392 58.812 1484.152 C 54.142 1485.952 49.742 1487.582 46.062 1488.812 C 44.992 1489.172 43.992 1489.502 43.062 1489.812 C 41.045 1490.541 38.946 1491.025 36.812 1491.252 C 35.807 1491.268 34.804 1491.362 33.812 1491.532 C 25.742 1492.842 11.912 1498.532 10.402 1504.242 C 10.28 1504.698 10.246 1505.173 10.302 1505.642 C 10.302 1505.642 10.302 1505.712 10.302 1505.752 C 11.302 1512.752 4.302 1511.752 4.302 1511.752 C 4.302 1511.752 1.802 1530.252 -1.698 1535.252 C -4.228 1538.852 -5.958 1546.882 -6.178 1552.942 L -6.178 1552.942 C -6.303 1554.83 -6.155 1556.726 -5.737 1558.572 C -5.737 1558.622 -5.737 1558.672 -5.737 1558.712 C -5.338 1560.052 -6.298 1563.712 -7.928 1568.402 C -9.698 1573.552 -12.278 1579.952 -14.758 1585.992 C -18.498 1595.112 -22.018 1603.392 -22.237 1605.212 C -22.328 1606.022 -22.588 1607.472 -22.948 1609.342 C -24.408 1616.962 -27.648 1631.472 -29.248 1637.342 C -30.438 1641.722 -32.168 1647.722 -33.358 1651.842 C -33.358 1651.962 -33.428 1652.082 -33.458 1652.192 L 11.372 1651.752 L 11.372 1652.592 L 11.513 1652.592 L 11.452 1652.592 Z " fill="rgb(130,130,156)"/><g opacity="0.1"><path d=" M 27.812 1534.722 C 27.812 1534.722 84.812 1564.222 105.312 1560.722 L 27.812 1534.722 Z " fill="rgb(0,0,0)"/></g><g opacity="0.1"><path d=" M 143.812 1522.722 C 143.812 1522.722 199.312 1540.722 217.812 1543.222 C 236.312 1545.722 143.812 1522.722 143.812 1522.722 Z " fill="rgb(0,0,0)"/></g><g opacity="0.1"><path d=" M 205.372 1464.802 C 176.372 1470.142 121.773 1468.992 98.172 1468.182 C 106.822 1437.182 149.002 1447.722 149.002 1447.722 C 201.213 1437.302 205.213 1458.922 205.372 1464.802 Z " fill="rgb(0,0,0)"/></g><path d=" M 205.372 1462.802 C 176.372 1468.142 121.773 1466.992 98.172 1466.182 C 106.822 1435.182 149.002 1445.722 149.002 1445.722 C 201.213 1435.302 205.213 1456.922 205.372 1462.802 Z " fill="rgb(130,130,156)"/><path d=" M 359.312 1599.472 C 359.312 1599.472 393.472 1594.222 394.143 1609.222 C 394.143 1609.222 376.722 1634.702 376.722 1634.702 L 359.312 1599.472 Z " fill="rgb(251,190,190)"/><g opacity="0.1"><path d=" M 187.662 1428.602 C 186.193 1429.259 184.691 1429.839 183.162 1430.342 C 172.382 1434.062 161.513 1437.812 150.162 1439.172 C 138.812 1440.532 126.903 1439.332 117.002 1433.672 C 115.963 1433.085 114.961 1432.434 114.002 1431.722 C 112.903 1409.722 110.252 1388.222 110.252 1388.222 C 110.252 1388.222 197.252 1347.222 187.252 1379.722 C 183.273 1392.852 184.622 1411.292 187.662 1428.602 Z " fill="rgb(0,0,0)"/></g><path d=" M 134.893 1291.992 C 131.998 1292.756 128.913 1292.107 126.572 1290.242 L 128.653 1293.132 C 126.171 1293.418 123.69 1292.595 121.872 1290.882 C 121.684 1293.469 121.791 1296.069 122.192 1298.632 C 118.751 1298.798 115.362 1297.735 112.632 1295.632 C 112.523 1297.48 113.577 1299.2 115.273 1299.942 C 108.121 1299.088 101.445 1303.671 99.672 1310.652 L 104.893 1311.132 C 100.79 1312.008 97.108 1314.255 94.453 1317.502 C 92.852 1319.502 91.632 1322.062 92.332 1324.502 C 93.032 1326.942 96.412 1328.502 98.252 1326.762 C 92.954 1333.085 90.722 1341.427 92.152 1349.552 C 92.627 1351.262 92.783 1353.045 92.612 1354.812 C 92.282 1356.462 91.242 1357.892 90.722 1359.502 C 89.722 1362.422 90.672 1365.592 91.562 1368.502 L 96.252 1383.922 C 97.953 1389.492 99.643 1395.072 101.862 1400.462 C 103.434 1403.87 104.771 1407.381 105.862 1410.972 C 107.122 1415.812 107.172 1421.112 109.862 1425.342 C 111.706 1428.004 114.17 1430.176 117.042 1431.672 C 126.932 1437.332 138.882 1438.532 150.203 1437.172 C 161.523 1435.812 172.382 1432.062 183.153 1428.342 C 185.545 1427.621 187.842 1426.614 189.992 1425.342 C 197.442 1420.462 199.102 1410.482 200.492 1401.692 C 202.042 1391.892 204.112 1382.112 207.782 1372.892 C 209.963 1367.402 212.782 1361.832 212.302 1355.952 C 211.692 1348.142 205.513 1341.812 203.982 1334.132 C 203.47 1331.565 203.494 1328.919 204.052 1326.362 C 204.527 1324.838 204.793 1323.257 204.842 1321.662 C 204.672 1318.442 202.032 1315.962 199.552 1313.892 Q 191.482 1307.152 182.893 1301.152 C 182.602 1299.152 185.322 1298.292 186.552 1296.712 C 188.292 1294.482 186.492 1290.942 183.852 1289.902 C 181.213 1288.862 178.252 1289.542 175.502 1290.232 C 175.87 1287.341 174.296 1284.552 171.632 1283.373 C 168.967 1282.194 165.844 1282.905 163.953 1285.122 C 162.465 1281.711 159.238 1279.381 155.532 1279.042 C 148.903 1278.522 148.773 1283.592 144.532 1286.382 C 140.292 1289.172 136.792 1285.492 133.532 1282.812 C 132.313 1285.895 132.832 1289.395 134.893 1291.992 L 134.893 1291.992 Z " fill="rgb(63,61,86)"/><path d=" M 384.643 1629.472 C 384.643 1629.472 383.752 1631.592 382.112 1634.662 C 379.632 1639.385 376.612 1643.805 373.112 1647.832 L 372.842 1648.122 L 371.222 1648.122 L 313.482 1648.652 L 312.102 1648.652 L 311.932 1648.452 L 300.732 1635.162 L 296.513 1630.152 L 296.342 1629.942 L 295.982 1629.522 L 295.782 1629.282 L 295.523 1628.972 L 287.312 1619.232 L 290.312 1606.732 L 295.422 1585.672 L 295.552 1585.162 L 296.552 1581.162 L 297.263 1578.162 L 299.643 1568.382 L 307.802 1534.732 L 322.302 1542.232 L 337.592 1569.232 L 345.802 1583.732 L 350.302 1583.732 C 351.153 1583.732 353.102 1585.372 355.062 1587.262 C 355.763 1587.932 356.463 1588.642 357.062 1589.262 C 358.842 1591.102 360.252 1592.682 360.252 1592.682 C 360.252 1592.682 367.542 1592.842 369.502 1598.582 C 369.604 1598.86 369.687 1599.144 369.752 1599.432 C 370.403 1601.688 371.25 1603.883 372.282 1605.992 C 373.572 1608.802 375.192 1611.992 376.833 1615.182 C 379.882 1621.032 382.982 1626.602 384.122 1628.622 L 384.263 1628.872 L 384.643 1629.472 Z " fill="rgb(130,130,156)"/><g opacity="0.1"><path d=" M 298.742 1584.322 L 298.643 1585.752 L 298.643 1585.852 L 298.472 1588.152 L 297.143 1606.662 L 295.532 1628.962 L 295.072 1635.242 L 294.072 1648.682 L 294.072 1648.852 L 187.072 1649.852 L 11.482 1651.752 L 11.482 1652.592 L 11.342 1652.592 L 11.342 1651.752 L 11.342 1651.472 L 11.792 1637.112 L 12.652 1609.052 L 13.392 1585.262 L 13.462 1582.892 C 13.551 1580.001 14.825 1577.274 16.985 1575.35 C 19.145 1573.426 22.001 1572.476 24.882 1572.722 C 29.602 1573.122 35.732 1573.612 43.062 1574.132 L 46.062 1574.352 C 88.392 1577.292 166.622 1581.092 245.562 1576.352 C 247.222 1576.262 248.893 1576.162 250.562 1576.042 C 262.802 1575.272 275.032 1574.282 287.143 1573.042 C 290.242 1572.717 293.325 1573.782 295.564 1575.949 C 297.803 1578.116 298.967 1581.164 298.742 1584.272 L 298.742 1584.322 Z " fill="rgb(0,0,0)"/></g><path d=" M 11.452 1652.592 L 11.452 1651.752 L 187.072 1649.842 L 294.072 1648.842 L 294.372 1648.842 L 294.372 1648.672 L 295.372 1635.232 L 295.802 1629.232 L 297.442 1606.622 L 298.732 1588.722 L 298.732 1588.282 C 298.792 1587.457 298.755 1586.628 298.622 1585.812 C 298.628 1585.779 298.628 1585.745 298.622 1585.712 C 298.348 1584.024 297.661 1582.43 296.622 1581.072 C 294.384 1578.201 290.823 1576.689 287.203 1577.072 C 275.092 1578.312 262.862 1579.302 250.622 1580.072 C 248.953 1580.192 247.282 1580.292 245.622 1580.382 C 166.682 1585.072 88.452 1581.272 46.122 1578.382 L 43.122 1578.162 C 35.792 1577.642 29.662 1577.162 24.942 1576.752 C 19.564 1576.298 14.713 1579.98 13.702 1585.282 C 13.602 1585.823 13.541 1586.371 13.522 1586.922 L 12.842 1609.082 L 11.912 1637.152 L 11.472 1651.512 L 11.472 1651.792 L 11.472 1652.632 L 11.452 1652.592 Z " fill="rgb(63,61,86)"/><g opacity="0.1"><path d=" M 299.042 1591.332 L 297.812 1606.662 L 295.982 1629.512 L 295.523 1635.232 L 294.523 1648.042 L 294.463 1648.682 L 294.463 1648.852 L 294.463 1648.852 L 294.312 1650.332 L 294.422 1648.852 L 294.132 1648.852 L 187.132 1649.852 L 11.482 1651.752 L 11.482 1651.472 L 11.972 1637.112 L 12.972 1609.052 L 13.612 1590.402 C 13.676 1588.246 14.828 1586.27 16.672 1585.152 C 17.805 1584.458 19.129 1584.143 20.452 1584.252 C 22.552 1584.422 25.132 1584.622 28.142 1584.842 C 33.032 1585.202 39.062 1585.622 46.082 1586.062 C 59.082 1586.882 75.392 1587.762 94.082 1588.482 C 146.083 1590.482 216.282 1591.152 282.963 1585.312 C 285.963 1585.052 289.062 1584.762 292.092 1584.472 C 293.292 1584.352 294.5 1584.581 295.572 1585.132 C 295.876 1585.283 296.164 1585.464 296.432 1585.672 C 297.303 1586.303 297.993 1587.151 298.432 1588.132 C 298.535 1588.327 298.618 1588.531 298.682 1588.742 C 298.983 1589.57 299.106 1590.453 299.042 1591.332 L 299.042 1591.332 Z " fill="rgb(0,0,0)"/></g><g opacity="0.1"><path d=" M -40.188 1605.022 L -40.188 1608.212 C -40.186 1610.58 -41.549 1612.736 -43.688 1613.752 L -83.788 1614.522 C -85.965 1613.524 -87.36 1611.347 -87.358 1608.952 L -87.358 1605.952 L -40.188 1605.022 Z " fill="rgb(0,0,0)"/></g><path d=" M -39.688 1615.632 L -91.938 1616.632 L -91.938 1607.962 L -39.688 1606.962 L -39.688 1615.632 L -39.688 1615.632 Z " fill="rgb(63,61,86)"/><g opacity="0.1"><path d=" M -39.688 1615.632 L -91.938 1616.632 L -91.938 1607.962 L -39.688 1606.962 L -39.688 1615.632 L -39.688 1615.632 Z " fill="rgb(0,0,0)"/></g><path d=" M -37.688 1615.632 L -89.938 1616.632 L -89.938 1607.962 L -37.688 1606.962 L -37.688 1615.632 L -37.688 1615.632 Z " fill="rgb(63,61,86)"/><g id="Group" style="opacity:0.1;"><g opacity="0.1"><path d=" M 135.302 1288.712 C 134.326 1287.442 133.676 1285.952 133.412 1284.372 C 133.171 1285.916 133.316 1287.497 133.833 1288.972 C 134.329 1288.926 134.821 1288.839 135.302 1288.712 L 135.302 1288.712 Z " fill="rgb(0,0,0)"/></g><g opacity="0.1"><path d=" M 122.602 1295.352 C 122.414 1294.126 122.29 1292.891 122.232 1291.652 C 122.232 1292.882 122.232 1294.122 122.232 1295.362 L 122.602 1295.352 Z " fill="rgb(0,0,0)"/></g><g opacity="0.1"><path d=" M 204.102 1328.722 C 204.158 1327.831 204.278 1326.945 204.463 1326.072 C 204.935 1324.551 205.205 1322.974 205.263 1321.382 C 205.24 1321.025 205.187 1320.67 205.102 1320.322 C 204.932 1321.242 204.662 1322.162 204.463 1323.072 C 204.063 1324.927 203.942 1326.831 204.102 1328.722 L 204.102 1328.722 Z " fill="rgb(0,0,0)"/></g><g opacity="0.1"><path d=" M 183.302 1297.822 L 184.393 1298.612 C 185.311 1297.947 186.171 1297.204 186.963 1296.392 C 187.728 1295.333 187.873 1293.946 187.342 1292.752 C 187.243 1292.98 187.115 1293.195 186.963 1293.392 C 185.732 1294.972 183.013 1295.842 183.302 1297.822 Z " fill="rgb(0,0,0)"/></g><g opacity="0.1"><path d=" M 101.132 1307.442 C 100.768 1308.171 100.476 1308.935 100.263 1309.722 C 101.827 1308.849 103.512 1308.212 105.263 1307.832 L 101.132 1307.442 Z " fill="rgb(0,0,0)"/></g><g opacity="0.1"><path d=" M 114.922 1296.562 C 114.266 1296.2 113.637 1295.789 113.042 1295.332 C 113.017 1295.727 113.048 1296.125 113.132 1296.512 C 113.73 1296.483 114.328 1296.5 114.922 1296.562 Z " fill="rgb(0,0,0)"/></g><g opacity="0.1"><path d=" M 212.692 1355.482 C 212.282 1360.332 210.023 1365.002 208.192 1369.602 C 204.523 1378.822 202.453 1388.602 200.903 1398.412 C 199.513 1407.202 197.903 1417.182 190.403 1422.052 C 188.26 1423.332 185.965 1424.34 183.572 1425.052 C 172.792 1428.782 161.922 1432.522 150.572 1433.882 C 139.222 1435.242 127.312 1434.052 117.412 1428.392 C 114.542 1426.894 112.078 1424.722 110.232 1422.062 C 107.562 1417.832 107.513 1412.532 106.232 1407.692 C 105.141 1404.098 103.805 1400.583 102.232 1397.172 C 100.023 1391.792 98.322 1386.172 96.632 1380.642 Q 94.282 1372.932 91.942 1365.212 C 91.429 1363.664 91.047 1362.075 90.802 1360.462 C 90.412 1363.022 91.172 1365.702 91.942 1368.212 Q 94.282 1375.942 96.632 1383.642 C 98.322 1389.212 100.023 1394.792 102.232 1400.172 C 103.805 1403.583 105.141 1407.098 106.232 1410.692 C 107.492 1415.532 107.542 1420.832 110.232 1425.062 C 112.078 1427.722 114.542 1429.894 117.412 1431.392 C 127.312 1437.052 139.252 1438.242 150.572 1436.882 C 161.893 1435.522 172.752 1431.782 183.572 1428.052 C 185.965 1427.34 188.26 1426.332 190.403 1425.052 C 197.852 1420.182 199.513 1410.202 200.903 1401.412 C 202.453 1391.602 204.523 1381.822 208.192 1372.602 C 210.372 1367.122 213.192 1361.552 212.713 1355.662 C 212.713 1355.602 212.692 1355.542 212.692 1355.482 Z " fill="rgb(0,0,0)"/></g><g opacity="0.1"><path d=" M 93.002 1351.612 C 93.002 1351.612 93.002 1351.542 93.002 1351.502 C 93.183 1349.739 93.027 1347.957 92.542 1346.252 C 92.343 1345.154 92.213 1344.046 92.152 1342.932 C 92.037 1345.047 92.168 1347.167 92.542 1349.252 C 92.702 1350.032 92.882 1350.822 93.002 1351.612 Z " fill="rgb(0,0,0)"/></g><g opacity="0.1"><path d=" M 96.052 1327.152 C 96.822 1325.86 97.694 1324.632 98.662 1323.482 C 96.833 1325.232 93.452 1323.672 92.742 1321.242 C 92.481 1322.225 92.481 1323.259 92.742 1324.242 C 93.244 1325.736 94.507 1326.846 96.052 1327.152 L 96.052 1327.152 Z " fill="rgb(0,0,0)"/></g></g><g opacity="0.1"><path d=" M 345.812 1583.722 C 345.812 1583.722 348.982 1595.222 345.812 1605.222 C 342.643 1615.222 345.812 1583.722 345.812 1583.722 Z " fill="rgb(0,0,0)"/></g><g opacity="0.1"><path d=" M 359.312 1595.452 C 359.312 1595.452 360.643 1610.052 357.643 1612.642 C 354.643 1615.232 359.312 1595.452 359.312 1595.452 Z " fill="rgb(0,0,0)"/></g><line x1="-139.298" y1="1442.922" x2="-37.688" y2="1441.922" vector-effect="non-scaling-stroke" stroke-width="2" stroke="rgb(130,130,156)" stroke-linejoin="miter" stroke-linecap="butt" stroke-miterlimit="10"/><line x1="-139.298" y1="1455.392" x2="-37.688" y2="1454.402" vector-effect="non-scaling-stroke" stroke-width="2" stroke="rgb(130,130,156)" stroke-linejoin="miter" stroke-linecap="butt" stroke-miterlimit="10"/><line x1="-139.298" y1="1467.872" x2="-37.688" y2="1466.872" vector-effect="non-scaling-stroke" stroke-width="2" stroke="rgb(130,130,156)" stroke-linejoin="miter" stroke-linecap="butt" stroke-miterlimit="10"/></g></svg>